<?xml version="1.0" encoding="utf-8"?>
<!-- Generator: Adobe Illustrator 22.1.0, SVG Export Plug-In . SVG Version: 6.00 Build 0)  -->
<svg version="1.1" id="Layer_1" xmlns="http://www.w3.org/2000/svg" xmlns:xlink="http://www.w3.org/1999/xlink" x="0px" y="0px"
	 viewBox="0 0 676.7 359.3" style="enable-background:new 0 0 676.7 359.3;" xml:space="preserve">
<style type="text/css">
	.st0{fill:#F47920;}
</style>
<g>
	<g>
		<path class="st0" d="M126.4,16.4c-1.2-0.1-2.4-0.1-3.6-0.1c-9.6,0-43,2.1-68.9,28.6c-20.7,21.2-29.9,46.6-29.9,82.5v7.1H4.8
			c-2.7,0-4.8,2.2-4.8,4.8v20.8c0,2.7,2.2,4.8,4.8,4.8l19.1,0v150.5c0,0.5,0,0.9,0,1.4c0,3.3,0.1,7-2,9.1c-1.2,1.3-3.2,1.9-5.9,1.9
			h-5.4c-2.7,0-4.8,2.2-4.8,4.8v17.3c0,2.7,2.2,4.8,4.8,4.8h81.9c2.7,0,4.8-2.2,4.8-4.8v-17.3c0-2.7-2.2-4.8-4.8-4.8H86
			c-2.6,0-4.3-0.6-5.4-1.7c-1.7-1.8-1.5-5-1.4-8.1c0-0.9,0.1-1.8,0.1-2.6V165h55c2.7,0,4.8-2.2,4.8-4.8v-20.8c0-2.6-2.2-4.8-4.8-4.8
			h-55V94c0-22.9,5.4-39,15.1-45.4c4.2-2.7,8.1-4,12-4c5.2,0,9.7,2.4,14.3,4.8c4.7,2.5,9.6,5.1,15.4,5.1h0c0.4,0,0.9,0,1.3-0.1
			c8.9-0.6,17-8.8,17.8-17.9c0.4-4.8-0.7-8.7-3.4-11.8C147.5,19.8,139.2,17.1,126.4,16.4z"/>
		<path class="st0" d="M308.9,120.7c-1.1,0-2.2,0-3.4,0.1c-36.5,1.6-55.6,24.8-59.4,29.9V38.6c0-10.4-4.4-15.7-13-15.7
			c-1.5,0-3.1,0.2-4.8,0.5c-0.4,0.1-40.2,5.7-47.6,7.9c-6.1,1.3-8.9,4.4-8.9,9.7v3.9c0,4.8,3.5,6.9,6.9,6.9h0l5.9,0.7
			c6.1,1,6.1,1,6.1,8.6c0,0.8,0,1.7,0,2.7v277.2c0,9.2,6.8,13.3,13.2,13.3c2.1,0,4.3-0.9,7-2c4.5-1.8,10.2-4.1,19.3-3.8
			c4.4,0.1,10.6,1.8,17.8,3.6c12.1,3.2,27.1,7.1,43.7,7.1c38.1,0,64.8-10.5,81.6-32c15.9-20.2,23.6-51.2,23.6-94.6
			c0-36.3-9.9-66-28.6-86C352.8,130.2,331.2,120.7,308.9,120.7z M341.8,238.9c-0.5,30.3-4.8,52.7-13.2,68.3
			c-9.6,17.7-24.1,26.4-44.4,26.4c-0.7,0-1.4,0-2.2,0c-29.5-0.9-35.8-22.1-35.8-39.8l-0.1-92c0-14.5,13.3-42.6,39.9-46.8
			c2.3-0.4,4.5-0.5,6.8-0.5c10.5,0,20.2,4.2,27.9,12C334.8,180.9,342.3,206.6,341.8,238.9z"/>
		<path class="st0" d="M609,146.7c-15.5-16.5-37.1-26-59.4-26c-1.1,0-2.2,0-3.4,0.1c-36.5,1.6-55.6,24.8-59.4,29.9V38.6
			c0-10.4-4.4-15.7-13-15.7c-1.5,0-3.1,0.2-4.8,0.5c-0.4,0.1-40.2,5.7-47.6,7.9c-6.1,1.3-8.9,4.4-8.9,9.7v3.9c0,4.8,3.5,6.9,6.9,6.9
			h0l5.9,0.7c6.1,1,6.1,1,6.1,8.6c0,0.8,0,1.7,0,2.7v277.2c0,9.2,6.8,13.3,13.2,13.3c2.1,0,4.3-0.9,7-2c4.5-1.8,10.2-4.1,19.3-3.8
			c4.4,0.1,10.6,1.8,17.8,3.6c12.1,3.2,27.1,7.1,43.7,7.1c38.1,0,64.8-10.5,81.7-32c15.8-20.2,23.5-51.2,23.5-94.6
			C637.7,196.4,627.7,166.7,609,146.7z M582.5,238.9c-0.5,30.3-4.8,52.7-13.2,68.3c-9.6,17.7-24.1,26.4-44.4,26.4
			c-0.7,0-1.4,0-2.2,0c-29.6-0.9-35.8-22.1-35.8-39.8l-0.1-92c0-14.5,13.3-42.6,39.9-46.8c2.3-0.4,4.5-0.5,6.8-0.5
			c10.5,0,20.2,4.2,28,12C575.5,180.9,583,206.6,582.5,238.9z"/>
	</g>
	<path class="st0" d="M668.8,13.2c-7.2,0-12.1,7.9-19.7,7.9c-7.5,0-9.6-5.4-20.4-14.4c-10.8-9-18.9-6.2-18.9-6.2
		c1,3.4,4.4,4.9,4.4,4.9c-1,1.4-0.6,6.1,2.7,7.4c-1.2,1.9-0.6,8,3.3,9.4c-0.5,1.5-0.7,3.8,4,10.5c12.1,17.4-9.2,21.3-12.1,26
		c36.8-3.2,48-24.3,51.7-30.3c4.2-6.8,8.4-9.1,12.9-9.5C674.2,13.2,668.8,13.2,668.8,13.2z"/>
</g>
</svg>
